<svg width="19" height="22" viewBox="0 0 19 22" fill="none" xmlns="http://www.w3.org/2000/svg">
 <path fill-rule="evenodd" clip-rule="evenodd" d="M0 1.75796C0 0.813063 0.76599 0.0470734 1.71089 0.0470734H17.1089C18.0538 0.0470734 18.8198 0.813064 18.8198 1.75796V17.1559C18.8198 18.1008 18.0538 18.8668 17.1089 18.8668H7.13145L4.57616 20.9768C4.24445 21.2506 3.74366 21.0147 3.74366 20.5845V18.8668H1.71089C0.76599 18.8668 0 18.1008 0 17.1559V1.75796ZM3.74233 3.15654H11.9675C13.7438 3.15654 15.1839 4.59657 15.1839 6.37295C15.1839 7.79643 14.2592 9.00394 12.9777 9.42752C14.4761 9.70154 15.6117 11.0138 15.6117 12.5913C15.6117 14.3677 14.1717 15.8078 12.3953 15.8078H3.74247V9.58936H3.74233V3.15654ZM10.583 6.05092H6.73607V7.98076H10.583C11.1159 7.98076 11.5479 7.54875 11.5479 7.01584C11.5479 6.48293 11.1159 6.05092 10.583 6.05092ZM6.73607 10.3396H10.9035C11.4956 10.3396 11.9757 10.8196 11.9757 11.4117C11.9757 12.0039 11.4956 12.4839 10.9035 12.4839H6.73607V10.3396Z" fill="white"/>
</svg>